<svg xmlns="http://www.w3.org/2000/svg" width="60px" height="60px" viewBox="0 0 25 24" xmlns:v="https://vecta.io/nano"><linearGradient id="A" x1="10.535" x2="10.535" y1="6.378" y2="21" gradientUnits="userSpaceOnUse"><stop offset="0" stop-color="#fd4685"/><stop offset="1" stop-color="#ff9d8c"/></linearGradient><g fill="url(#A)" fill-rule="evenodd"><path d="M7.535 6a3 3 0 0 1 3-3h8a3 3 0 0 1 3 3v8a3 3 0 0 1-3 3h-8a3 3 0 0 1-3-3zm3-1a1 1 0 0 0-1 1v8a1 1 0 0 0 1 1h8a1 1 0 0 0 1-1V6a1 1 0 0 0-1-1z"/><path d="M3.535 10a3 3 0 0 1 3-3h8a3 3 0 0 1 3 3v8a3 3 0 0 1-3 3h-8a3 3 0 0 1-3-3zm3-1a1 1 0 0 0-1 1v8a1 1 0 0 0 1 1h8a1 1 0 0 0 1-1v-8a1 1 0 0 0-1-1z"/></g></svg>