<svg width="21" height="21" viewBox="0 0 21 21" fill="none" xmlns="http://www.w3.org/2000/svg">
    <path d="M6.18904 11.5285C7.59904 11.5285 8.72904 12.6695 8.72904 14.0895V17.4985C8.72904 18.9085 7.59904 20.0585 6.18904 20.0585H2.80904C1.40904 20.0585 0.269043 18.9085 0.269043 17.4985V14.0895C0.269043 12.6695 1.40904 11.5285 2.80904 11.5285H6.18904ZM17.7291 11.5285C19.1291 11.5285 20.2691 12.6695 20.2691 14.0895V17.4985C20.2691 18.9085 19.1291 20.0585 17.7291 20.0585H14.3491C12.9391 20.0585 11.8091 18.9085 11.8091 17.4985V14.0895C11.8091 12.6695 12.9391 11.5285 14.3491 11.5285H17.7291ZM6.18904 0.0588379C7.59904 0.0588379 8.72904 1.20884 8.72904 2.61984V6.02884C8.72904 7.44884 7.59904 8.58884 6.18904 8.58884H2.80904C1.40904 8.58884 0.269043 7.44884 0.269043 6.02884V2.61984C0.269043 1.20884 1.40904 0.0588379 2.80904 0.0588379H6.18904ZM17.7291 0.0588379C19.1291 0.0588379 20.2691 1.20884 20.2691 2.61984V6.02884C20.2691 7.44884 19.1291 8.58884 17.7291 8.58884H14.3491C12.9391 8.58884 11.8091 7.44884 11.8091 6.02884V2.61984C11.8091 1.20884 12.9391 0.0588379 14.3491 0.0588379H17.7291Z" fill="url(#paint0_linear_91_740)"/>
    <defs>
        <linearGradient id="paint0_linear_91_740" x1="0.688656" y1="2.89317" x2="16.966" y2="3.32405" gradientUnits="userSpaceOnUse">
            <stop stop-color="#FF479F"/>
            <stop offset="1" stop-color="#FF783F"/>
        </linearGradient>
    </defs>
</svg>
