  <svg xmlns="http://www.w3.org/2000/svg" id="Icon" width="59" height="53" viewBox="0 0 59 53">
                                    <defs>
                                      <style>
                                        .cls-1 {
                                          fill: #ff479f4a;
                                        }
                                  
                                        .cls-1, .cls-2 {
                                          fill-rule: evenodd;
                                        }
                                  
                                        .cls-2 {
                                          fill: #FF479F;
                                        }
                                      </style>
                                    </defs>
                                    <path class="cls-1" d="M936.177,392.021c0-.009,0-0.011,0,0h0Zm1.078,6.247,0.036,0.009c0-.017.006-0.034,0.009-0.053Zm-0.434.011,0.223,0.2,0.211-.214-0.388-.086Zm-0.642-6.251a0.019,0.019,0,0,1,0-.007A0.025,0.025,0,0,0,936.179,392.028Zm53.214,8.068-0.7-.222c0.225-.483.225-0.483,0.488-0.157,0.151-.216.317-0.369-0.145-0.431a1.717,1.717,0,0,1-.638-0.437,0.677,0.677,0,0,1,.792-0.461c-0.345-.115-0.668-0.194-0.986-0.292a0.784,0.784,0,0,1-.217-0.168,0.834,0.834,0,0,1,.262-0.161,3.248,3.248,0,0,1,.513-0.008c0.012-.044.023-0.089,0.035-0.133a5.127,5.127,0,0,0-2.382-1.112,0.843,0.843,0,0,1,1.1.093c0-.133.007-0.246,0-0.358-0.013-.182.1-0.389-0.215-0.479a6.393,6.393,0,0,1-.976-0.44c-0.935-.453-1.852-0.949-2.805-1.358-1.477-.632-2.975-1.214-4.469-1.8-1-.394-2.053-0.69-3.014-1.167-0.553-.275-1.127-0.513-1.682-0.785s-1.134-.5-1.69-0.784c-0.631-.32-1.292-0.579-1.945-0.853-0.358-.149-0.724-0.28-1.09-0.408-0.456-.159-0.921-0.292-1.372-0.464-0.279-.106-0.538-0.266-0.808-0.4a0.159,0.159,0,0,0-.1.03c-0.159.076-.316,0.155-0.474,0.232a1.188,1.188,0,0,0-1.332-.866,3.306,3.306,0,0,0-.5-0.287c-0.4-.146-0.822-0.245-1.221-0.4a11.754,11.754,0,0,0-3.294-.864,6.7,6.7,0,0,1-1.454-.331,1.242,1.242,0,0,0-.968-0.248,0.751,0.751,0,0,1-.345-0.095,2.812,2.812,0,0,0-.771-0.178,0.8,0.8,0,0,1-.954-0.517l-0.413.076a0.725,0.725,0,0,0-.69-0.383,3.721,3.721,0,0,1-.675-0.281c-0.117-.054-0.228-0.122-0.342-0.184-0.034.048-.069,0.1-0.1,0.143a3.23,3.23,0,0,0,.6.527c1.048,0.531,2.111,1.031,3.171,1.538,0.109,0.052.233,0.072,0.348,0.115a14.86,14.86,0,0,1,4.029,1.769,0.758,0.758,0,0,0,.2.094c0.32,0.122.641,0.244,0.963,0.361,1.579,0.572,3.159,1.14,4.737,1.715,0.2,0.072.5,0.122,0.4,0.418-0.091.266-.351,0.147-0.543,0.08-0.344-.12-0.68-0.258-1.023-0.379q-1.956-.693-3.913-1.382c-0.115-.041-0.219-0.115-0.334-0.153-0.825-.274-1.648-0.551-2.478-0.809a2.549,2.549,0,0,1-1.3-.712,1.8,1.8,0,0,0-.8-0.484c-0.834-.266-1.689-0.466-2.526-0.721a5,5,0,0,1-2.234-.843,0.8,0.8,0,0,0-.242-0.08c-0.248-.1-0.493-0.21-0.743-0.31-0.281-.112-0.563-0.227-0.85-0.323a2.074,2.074,0,0,1-1.169-.557,0.674,0.674,0,0,0-.651-0.434,0.275,0.275,0,0,1-.133-0.1c-0.145-.144-0.3-0.283-0.429-0.439a1.366,1.366,0,0,1-.276-0.423,1.315,1.315,0,0,0-.913-0.779,1.067,1.067,0,0,1-.535-0.158,5.057,5.057,0,0,0-1.967-.593c-0.51-.16-0.55-0.094-0.516-0.682a1.663,1.663,0,0,1-.812-0.232,2.074,2.074,0,0,0-1.024-.444l-0.248.449-0.129.018a0.682,0.682,0,0,0-.677-0.917c-0.293-.061-0.594-0.087-0.891-0.13a0.29,0.29,0,0,1-.168-0.038,2,2,0,0,0-.955-0.465,2.679,2.679,0,0,0-.635-0.264c-0.207-.082-0.417-0.159-0.62-0.248-0.1-.044-0.182-0.134-0.283-0.166-0.522-.166-1.048-0.32-1.572-0.478l0.021,0.093-0.687.148,0.841,0.374-0.042.1c-0.5-.209-1-0.421-1.5-0.626s-0.978-.389-1.467-0.583l-0.057.152,2.163,0.875-0.489.352a0.254,0.254,0,0,0-.162-0.416,7.769,7.769,0,0,1-.914-0.33,0.536,0.536,0,0,0-.162.063l0.826,0.588-0.352.055c0,0.044,0,.088,0,0.131,0.5,0.206,1.01.4,1.51,0.621a6.434,6.434,0,0,1,.645.344c0.117,0.067.222,0.153,0.381,0.263a1.151,1.151,0,0,1-.347-0.04,2.421,2.421,0,0,0-1.252-.463,0.467,0.467,0,0,1-.354-0.153c-0.161-.2-0.143-0.22-0.31-0.2l-1.766-.537a1.427,1.427,0,0,0,1.029.908,6.345,6.345,0,0,1-.991-0.263c-0.363-.1-0.734-0.18-1.1-0.268a1.991,1.991,0,0,0,.464.709,1.228,1.228,0,0,1,.656.561h0.571l-0.343.3,0.416,0.393c0.029-.1.052-0.168,0.075-0.242l0.105,0.061,0.259,0.626a6.759,6.759,0,0,1-.912-0.338,4.816,4.816,0,0,1-.656-0.3,1.729,1.729,0,0,0-.735-0.144c0.062,0.226.123,0.449,0.185,0.673l-0.1.042-0.746-.348-0.379.149c0.6,0.183,1.1.345,1.6,0.481a0.839,0.839,0,0,1,.6.7h-0.46l-0.03.094c0.641,0.411,1.419.514,2.089,0.871,0.693,0.368,1.438.639,2.162,0.948,0.691,0.3,1.385.587,1.947,0.825,0.161,0.347.272,0.589,0.42,0.909,0.088-.2.124-0.282,0.159-0.363l0.1,0a3.365,3.365,0,0,0,.1.516c0.122,0.335-.093.308-0.284,0.272-0.153-.03-0.294-0.125-0.447-0.159a5.381,5.381,0,0,0-.576-0.069s0.029-.079.09-0.245l-0.943.062c0.051,0.321.1,0.645,0.157,1l-0.749-.127c0.063-.09.1-0.137,0.128-0.184l-0.053-.052-0.5.317c0.007,0.044.015,0.087,0.023,0.13a13.018,13.018,0,0,1,1.468.22,1.224,1.224,0,0,1,.543.467,0.493,0.493,0,0,1-.04.306,0.845,0.845,0,0,0-.359-0.076,3.247,3.247,0,0,0-.453.314l-0.064-.067-0.035.278h0.7c0,0.038,0,.075.007,0.112l-0.517.2c0.03,0.125.054,0.224,0.053,0.221l-0.6.336,0.047,0.069-0.526-.06v-0.117a1,1,0,0,0-.41-0.153,1.456,1.456,0,0,0-.412.255c-0.044-.167-0.077-0.3-0.111-0.427l-0.122.025c0,0.089-.011.179-0.016,0.269l-0.34-.051c0.16,0.119.244,0.183,0.335,0.252a0.325,0.325,0,0,0,.1.527c0.034-.11.067-0.219,0.113-0.369l0.628,0.7-0.438.073c-0.031.052-.1,0.164-0.164,0.275l0.039,0.086,0.6-.269v0.565c0.371-.256.338,0.092,0.455,0.354,0.078-.18.119-0.276,0.181-0.421a1.451,1.451,0,0,0,1.219,1.174v0.29l-0.928-.275c-0.051.06-.1,0.123-0.187,0.224-0.011-.148-0.017-0.236-0.027-0.373a0.687,0.687,0,0,1-.152.247c-0.308.011-.618,0.006-0.926-0.013-0.257-.015-0.511-0.057-0.8-0.091,0.065,0.275.041,0.508,0.376,0.32a0.316,0.316,0,0,1,.453.344,1.051,1.051,0,0,0,.273.447l-0.276.173-0.03-.083s0,0,0,.006a4.42,4.42,0,0,1-.559.072c-0.268,0-.536-0.025-0.815-0.041l-0.216-.3c-0.015.154-.023,0.228-0.031,0.3-0.265-.606-0.655-0.138-0.973-0.174l-0.069.121,0.731,0.545,0.009-.073,0.68,0.144c-0.08.156-.151,0.292-0.221,0.429l-0.291-.273-0.1.476,0.13-.074,0.874,0.482a0.805,0.805,0,0,1-.814.532c0.345,0.1.667,0.143,0.985,0.209a0.787,0.787,0,0,1,.227.149,0.859,0.859,0,0,1-.244.195,3.883,3.883,0,0,1-.544.09,1.315,1.315,0,0,0,1.07.671,0.436,0.436,0,0,1,.283.269c0.075,0.361-.226.828,0.339,1.018l-0.279.163c0.074,0.062.145,0.127,0.221,0.186,0.151,0.116.3,0.228,0.381,0.286a0.974,0.974,0,0,0-.045.341,3.093,3.093,0,0,0,.661.363c0.49,0.173.992,0.309,1.488,0.46-0.006.022-.013,0.045-0.02,0.067l-1.752-.392c-0.024.158-.035,0.229-0.047,0.3a0.791,0.791,0,0,1,.2,0c0.438,0.136.88,0.26,1.307,0.423a8.6,8.6,0,0,1,.841.424c-0.009.035-.018,0.069-0.028,0.1l0.244-.153c0.019,0.04.037,0.08,0.055,0.119a0.8,0.8,0,0,1-.358.111,5.384,5.384,0,0,1-.568-0.253,1.3,1.3,0,0,0-.4-0.073c-0.245-.012-0.492,0-0.739,0,0-.039-0.009-0.079-0.013-0.118l0.116-.145-0.041-.079-0.351.141a1.748,1.748,0,0,0-.331-0.151,3.337,3.337,0,0,0-.415-0.028c-0.369-.038-0.738-0.081-1.118-0.122a1.8,1.8,0,0,1,.256.375,0.5,0.5,0,0,0,.621.373,0.659,0.659,0,0,1,.279.147c-0.661.18-1.237-.3-1.866-0.055-0.008-.06-0.017-0.124-0.027-0.188l-0.048.1-1.16-.322a0.858,0.858,0,0,0,.176.243,1.656,1.656,0,0,1,1,.7,0.48,0.48,0,0,0,.241.129c0.055,0.024.121,0.025,0.173,0.054,0.188,0.1.372,0.213,0.523,0.3-0.024.043-.082,0.15-0.171,0.314l0.656-.148a1.655,1.655,0,0,0-.249.551,0.924,0.924,0,0,0,.349.315l0.145-.361c0.1,0.3.167,0.508,0.263,0.8a1.463,1.463,0,0,1-.414-0.006c-0.4-.129-0.8-0.288-1.2-0.429a0.444,0.444,0,0,0-.233-0.034c-0.169.038-.332,0.1-0.5,0.155a0.768,0.768,0,0,1,.159.856l-0.683-.123,0.161-.155-0.053-.075-0.522.313c0,0.035.01,0.069,0.016,0.1,0.493,0.073.984,0.16,1.48,0.212a0.9,0.9,0,0,1,.678.573c0.011,0.357-.312.227-0.483,0.32a1.051,1.051,0,0,0-.109.149l1.282,0.391a1.342,1.342,0,0,1,.065-0.144,1.183,1.183,0,0,1,.26.113,0.953,0.953,0,0,0,.175.157c0.341,0.082.688,0.133,1.028,0.219,0.227,0.058.445,0.155,0.668,0.235,0.383,0.138.764,0.289,1.153,0.408a0.733,0.733,0,0,0,.324-0.084,0.791,0.791,0,0,0,.16.17,0.227,0.227,0,0,1,.347.129,0.354,0.354,0,0,0,.171.058,5.466,5.466,0,0,1,.815.277,1.063,1.063,0,0,1,.164.468c-0.417-.124-0.772-0.23-1.126-0.337a0.165,0.165,0,0,0,.006-0.032,2.112,2.112,0,0,0-.387-0.192,1.052,1.052,0,0,0-.314-0.007c0.019,0.223.039,0.461,0.065,0.761l-0.6-.28,0.027-.108-0.44.228a10.849,10.849,0,0,0,1.189.374,0.588,0.588,0,0,1,.515.531,1.256,1.256,0,0,1-.424.343c0.183,0.087.382,0.2,0.592,0.275,0.191,0.07.4,0.09,0.59,0.162,0.092,0.035.146,0.165,0.238,0.206,0.234,0.105.487,0.167,0.72,0.276,0.6,0.278,1.188.57,1.78,0.861,0.122,0.06.23,0.15,0.354,0.2,0.638,0.273,1.288.52,1.912,0.822,0.154,0.074.511,0.075,0.375,0.457,0.57-.229.8,0.435,1.308,0.414l-0.554.308c-0.051-.13-0.088-0.225-0.127-0.328-0.075.054-.128,0.093-0.132,0.1a0.752,0.752,0,0,0-.193-0.246c-0.454-.175-0.908-0.337-1.353-0.543a3.767,3.767,0,0,0-1.54-.5,5.429,5.429,0,0,1-2.006-.557,0.768,0.768,0,0,0-1.028.173l0.209,0.411a1.34,1.34,0,0,0-.648.166,3.48,3.48,0,0,1-.394.414,0.186,0.186,0,0,1-.33.081c-0.236-.265-0.455-0.138-0.691.026-0.019-.123-0.034-0.223-0.05-0.322l-0.135,0q-0.042.4-.085,0.807l0.115,0.026c0.041-.085.083-0.17,0.136-0.278a1.041,1.041,0,0,1,.351,1.009l0.4,0.3c0.019-.036.048-0.092,0.113-0.213a1.009,1.009,0,0,0,.715.924,0.147,0.147,0,0,1,.051.12l-2.07-.04c-0.017.052-.034,0.1-0.05,0.155a0.767,0.767,0,0,0,.251.106c0.189,0.01.376-.016,0.335,0.277a0.3,0.3,0,0,0,.053.238c0.237,0.111.05,0.2-.023,0.213-0.21.031-.426,0.018-0.639,0.029-0.122.007-.242,0.027-0.389,0.045-0.012-.126-0.052-0.29-0.225-0.017-0.185-.415-0.424-0.152-0.677-0.088a1.4,1.4,0,0,0,.935.58l-0.118.359-0.212-.223-0.1.317c0.591,0.195,1.14.366,1.682,0.56,0.321,0.115.624,0.282,0.946,0.4,0.864,0.312,1.73.617,2.6,0.909,1.273,0.427,2.552.837,3.826,1.261a2.406,2.406,0,0,1,.6.268,0.972,0.972,0,0,1,.2.359,3.181,3.181,0,0,1-.392.083,0.577,0.577,0,0,1-.21-0.062q-2.4-.822-4.8-1.644a6.563,6.563,0,0,0-.873-0.28c-0.23-.044-0.486.047-0.713,0-0.439-.1-0.863-0.26-1.3-0.384a6.466,6.466,0,0,0-.82-0.194,1.37,1.37,0,0,0-.428.11,3.271,3.271,0,0,0,1.823.777c-0.261.074-.422,0.128-0.586,0.16a0.8,0.8,0,0,1-.239-0.025,0.554,0.554,0,0,0,.1.268,11.476,11.476,0,0,0,1.452.789c1.216,0.492,2.453.931,3.681,1.4a0.968,0.968,0,0,0,.883,0,1.275,1.275,0,0,1,.372-0.07,0.462,0.462,0,0,0,.471.621,2.366,2.366,0,0,1,.407.16c0.563,0.18,1.134.336,1.691,0.533,0.309,0.109.589,0.3,0.892,0.423,0.43,0.181.867,0.348,1.306,0.506s0.851,0.3,1.284.421a4.016,4.016,0,0,1,.949.223,0.743,0.743,0,0,0,.968.04,0.788,0.788,0,0,0,.057.353c0.3,0.114.623,0.183,1.055,0.3a7.115,7.115,0,0,0,3.076.9c0.417,0.469,1.047.263,1.531,0.488a5.88,5.88,0,0,0,1.6.436c0.019-.048.058-0.152,0.117-0.3,0.13,0.654.463,0.434,0.869,0.172l-0.214.351,0.745,0.147-0.1-.337a0.34,0.34,0,0,1,.185.136,1.263,1.263,0,0,1,.184.072c0.209,0.31.308,0.333,0.6,0.107,0.079,0.3.276,0.234,0.522,0.246a3.982,3.982,0,0,1,1.062.293,6.158,6.158,0,0,0,1.251.437,0.285,0.285,0,0,1,.114.183,1.794,1.794,0,0,1,.026.315,0.594,0.594,0,0,0,.11-0.168c-0.1-.353.061-0.27,0.263-0.171a4.518,4.518,0,0,0,.513.179c0.011,0.079.026,0.18,0.037,0.256h1.116l-0.17.057a1.2,1.2,0,0,0,1.187.352c0.019-.041.057-0.123,0.131-0.285,0.018,0.227.028,0.363,0.037,0.468l0.87,0.227c0.031-.151.057-0.283,0.084-0.415,0.055,0.392.225,0.5,0.559,0.335a1.987,1.987,0,0,1-.166-0.218,0.416,0.416,0,0,1,.088-0.105c0.074,0.065.147,0.132,0.222,0.195s0.125,0.1.213,0.164c-0.312.061-.178,0.156-0.026,0.277,0.107-.188.205-0.362,0.317-0.56l0.258,0.244a5.415,5.415,0,0,0,.59.059,0.352,0.352,0,0,0,.3-0.426,1.04,1.04,0,0,1-.527.114,1.113,1.113,0,0,0-.925-0.136,0.409,0.409,0,0,1-.457-0.377,0.294,0.294,0,0,1,.272-0.393,0.458,0.458,0,0,0,.142-0.154l-0.836-.277a0.244,0.244,0,0,1,.121-0.043c0.641,0.13,1.28.273,1.923,0.395a1.105,1.105,0,0,0,.361-0.053l-0.018-.121-1.462-.3c0.117-.185.176-0.277,0.245-0.385l0.189,0.227,0.72,0.059c0.009-.044.018-0.088,0.026-0.131-0.408-.463-1.069-0.356-1.553-0.655l1.53,0.212,0.042-.108a1.247,1.247,0,0,0-.3-0.2c-0.422-.127-0.853-0.223-1.272-0.356a0.716,0.716,0,0,1-.218-0.25c0.027-.039.053-0.078,0.08-0.116a0.637,0.637,0,0,0,.822.141,0.669,0.669,0,0,1,.252.155c-0.013.038-.025,0.077-0.038,0.115l0.211-.107c0.326,0.216.6,0.431,0.9,0.591,0.414,0.217.857,0.379,1.275,0.59,0.9,0.452,1.784.923,2.68,1.378a0.622,0.622,0,0,0,.379.086,0.89,0.89,0,0,1,.8-0.107,1.906,1.906,0,0,0,.125-0.153h-0.638l-0.108-.3,0.822,0.105V426.71a0.834,0.834,0,0,0,.368-0.007c0.157-.3.338-0.04,0.4,0.015a0.648,0.648,0,0,0,.783.166c0.023,0.133.042,0.236,0.066,0.376a0.536,0.536,0,0,0,.148-0.792l-0.168.256-0.4-.576,0.454-.1c-0.011-.048-0.022-0.1-0.032-0.146l-0.56.112,0.24-.3-0.538-.371s-0.045.03-.125,0.087a1.231,1.231,0,0,0-.816-1,0.38,0.38,0,0,1-.054-0.2l0.922,0.382v-0.012l1.485,0.371c0.018-.047.035-0.094,0.053-0.142a1.365,1.365,0,0,1-.521-0.214,2.563,2.563,0,0,1-.313-0.675l1.371,0.293,0.474,0.407,0.563-.036a2.516,2.516,0,0,0-1.057-.792c0.054-.082.109-0.165,0.159-0.243l0.262,0.181a0.874,0.874,0,0,0,.083-0.139c-0.063-.055-0.14-0.092-0.207-0.142a4.431,4.431,0,0,1-.435-0.346,0.223,0.223,0,0,1,.051-0.2,3.838,3.838,0,0,1,.466-0.169c-0.247-.093-0.515-0.189-0.777-0.3a0.426,0.426,0,0,1-.12-0.156,0.6,0.6,0,0,1,.2-0.087,3.091,3.091,0,0,1,.406.044c0.027-.049.053-0.1,0.079-0.147l-0.516-.484a1.045,1.045,0,0,1,.553-0.03,1.063,1.063,0,0,0,.776.221,3.555,3.555,0,0,1,.962.2c0.335,0.114.642,0.308,0.975,0.431a7.87,7.87,0,0,0,.853.214,0.774,0.774,0,0,0-.626-0.85,1.636,1.636,0,0,1-1.008-.427,3.89,3.89,0,0,0,.625-0.218c0.182-.1.315-0.354,0.564-0.071,0.023-.082.042-0.146,0.082-0.283l-0.7.168-0.182-.328,0.389-.126,0.12,0.144V420.3l0.045-.015c0.047,0.115.095,0.229,0.143,0.345l0.344-.074c-0.026-.112-0.048-0.21-0.051-0.222l0.623-.209-0.028-.088,0.5,0.168c-0.079.106-.148,0.2-0.208,0.276l1.081-.2,0.106,0.372,0.107-.019c0.017-.082.034-0.164,0.052-0.249l0.307,0.1-0.293-.273,0.109-.043c-0.052-.152-0.1-0.305-0.186-0.549l-0.172.4c-0.761-.931-0.836-0.915-0.436-1.222-0.243-.1-0.637.088-0.674-0.5l-0.22.422a6.316,6.316,0,0,0-.2-0.6,0.736,0.736,0,0,0-.248-0.337,1.27,1.27,0,0,0-.626-0.218c-0.342.015-.16-0.158-0.181-0.3l0.968,0.36,0.1-.175,0.168,0.266a0.366,0.366,0,0,1,.118-0.155c0.253,0.02.5,0.067,0.755,0.1l0.973,0.147c0.018-.043.037-0.085,0.056-0.128a0.716,0.716,0,0,0-.29-0.209,0.663,0.663,0,0,1-.726-0.741,0.273,0.273,0,0,1,.168-0.059c0.039,0,.083.032,0.125,0.032,0.186,0,.373-0.029.558-0.017,0.235,0.015.468,0.059,0.73,0.094l0.2,0.257,0.133-.273c0.093,0.2.157,0.339,0.186,0.4l0.75-.143a0.724,0.724,0,0,0-.634-0.512,3.5,3.5,0,0,0-.732-0.233c0.167-.453.167-0.453,0.493-0.117a0.7,0.7,0,0,0,.084-0.3,0.792,0.792,0,0,0-.243-0.1c-0.254-.151-0.5-0.312-0.709-0.441a0.623,0.623,0,0,1,.783-0.4c-0.346-.121-0.678-0.2-1-0.3a0.859,0.859,0,0,1-.241-0.185,1.677,1.677,0,0,1,.311-0.111,4.042,4.042,0,0,1,.455-0.026c0-.037.009-0.075,0.014-0.112a5.339,5.339,0,0,0-2.44-1.027,0.988,0.988,0,0,1,1.127.056,2.329,2.329,0,0,0-.147-0.7,0.974,0.974,0,0,0-.454-0.235c-0.535-.224-1.074-0.437-1.607-0.666a0.717,0.717,0,0,1-.183-0.2l0.077-.069a1.878,1.878,0,0,0,1.515.53c0.007,0.325.185,0.307,0.438,0.168l-1.3-.851c-0.018.062-.043,0.143-0.094,0.308-0.139-.645-0.751-0.621-1.115-0.939s-0.437-.228-0.119-0.661l0.53,0.409,0.272-.183c0,0.035,0,.07,0,0.105a1.847,1.847,0,0,0,.577.042,1.2,1.2,0,0,0,.385-0.309c-0.023-.051-0.047-0.1-0.071-0.151l-0.859.067a0.361,0.361,0,0,0-.178-0.105c-0.553-.042-1.107-0.067-1.66-0.1a1.286,1.286,0,0,0,.01-0.239c-0.026-.18-0.065-0.358-0.1-0.537a1.686,1.686,0,0,1,.58-0.06c0.441,0.116.864,0.3,1.3,0.438,0.841,0.261,1.687.508,2.532,0.756,0.187,0.055.38,0.091,0.57,0.135a0.293,0.293,0,0,0-.16-0.229c-0.566-.19-1.133-0.38-1.7-0.553a3.781,3.781,0,0,1-1.086-.306,5.061,5.061,0,0,0-1.457-.592c-0.189-.063-0.383-0.112-0.574-0.168a0.766,0.766,0,0,1,.443,0c0.681,0.147,1.361.3,2.045,0.434a0.6,0.6,0,0,0,.272-0.138,0.764,0.764,0,0,0-.242-0.144c-0.366-.056-0.741-0.065-1.1-0.143a5.14,5.14,0,0,1-.778-0.3l0.316-.373a1.388,1.388,0,0,0,.387.319,0.8,0.8,0,0,0,.378-0.158,0.107,0.107,0,0,1,.034.048,0.25,0.25,0,0,0,.4.153,1.269,1.269,0,0,0,.131-0.09,1.643,1.643,0,0,0-.323-0.244,2.735,2.735,0,0,1-.8-0.305,6.335,6.335,0,0,0-.817-0.216,3.045,3.045,0,0,1-.383-0.181l2.3,0.358,0.04-.1-0.187-.2-0.184.218-0.1-.082c0.021-.073.041-0.146,0.056-0.2-0.282-.093-0.549-0.2-0.824-0.267-0.33-.086-0.668-0.138-1-0.217a0.8,0.8,0,0,1-.309-0.14,2.471,2.471,0,0,1-.287-0.335,1.376,1.376,0,0,1,.82.267,0.565,0.565,0,0,0,.275.035c0.319-.028.666-0.294,0.9,0.155,0.243-.359.232,0.093,0.3,0.089,0.585-.211,1.167.212,1.712-0.168-0.464-.028-0.165-0.789-0.748-0.638l0.119-.274a1.512,1.512,0,0,0,1.21.083,2.538,2.538,0,0,0,.3.141c0.035,0.011.089-.048,0.129-0.042,0.249,0.041.5,0.091,0.795,0.147l-0.2-.608a0.243,0.243,0,0,1-.418.151,2.823,2.823,0,0,1-.545-0.572,0.31,0.31,0,0,1-.018-0.286,2.934,2.934,0,0,1,.483-0.259c0.051,0.27.19,0.054,0.278,0.039a0.769,0.769,0,0,0,.229-0.132l0.1,0.438,0.112-.026c0.011-.087.023-0.174,0.035-0.268l0.216,0.082c-0.068-.281-0.131-0.539-0.194-0.8l-0.088.013c-0.04.1-.081,0.2-0.141,0.358a4.105,4.105,0,0,0-.384-0.521,2.167,2.167,0,0,0-.418-0.257l0.059-.03,0.593,0.074,0.229-.368c-0.169.034-.279,0.065-0.39,0.077a1.58,1.58,0,0,1-.257-0.011c0.042-.076.079-0.156,0.128-0.228a0.615,0.615,0,0,1,.119-0.1c-0.418-.024-0.465-0.091-0.391-0.52l0.646,0.049-0.122.2,0.056,0.056,0.5-.355c0-.034,0-0.068,0-0.1-0.386-.059-0.772-0.119-1.158-0.177-0.151-.022-0.3-0.038-0.454-0.057,0.044-.125.087-0.25,0.133-0.375a0.113,0.113,0,0,1,.029-0.038l1.736,0.25c-0.08-.223-0.012-0.491-0.371-0.327a0.328,0.328,0,0,1-.441-0.34,1.467,1.467,0,0,0-.217-0.51l0.264-.044c0.27,0,.471-0.014.668,0,0.231,0.02.46,0.067,0.75,0.111l0.133,0.255,0.164-.284c0.074,0.2.125,0.343,0.161,0.441l0.724-.165C990.09,400.208,989.441,400.344,989.393,400.1Zm-7.582-7.029a6.814,6.814,0,0,1,1.127.486c0.525,0.23,1.047.467,1.576,0.687a2.053,2.053,0,0,0,.432.083c-0.052.238,0.159,0.245,0.331,0.292a0.625,0.625,0,0,1,.231.067,1.569,1.569,0,0,0,1.178.483l0.451,0.311,0.121-.164-1.226-.909-0.109.252c-0.206-.465-0.5-0.687-0.765-0.57a0.821,0.821,0,0,0-.956-0.508c0,0.094-.009.161-0.012,0.227l-0.079.008c-0.056-.135-0.113-0.27-0.179-0.43l-1.468-.729a0.438,0.438,0,0,1-.591-0.182,0.709,0.709,0,0,0-.312-0.1c-0.037-.01-0.075-0.019-0.113-0.027a0.7,0.7,0,0,0-.364-0.066c-0.253.184-.289,0.032-0.38-0.161a1.813,1.813,0,0,0-.336-0.386l-0.067.071c0.008,0.04.017,0.079,0.006,0.029l-1.29-.446c-0.02.233-.034,0.39-0.046,0.529l1.118,0.462A12.132,12.132,0,0,0,981.811,393.067Zm-14.274,35c-0.008.04-.016,0.079-0.023,0.119,0.783,0.27,1.564.546,2.351,0.8a0.917,0.917,0,0,0,.368-0.048c0-.034.008-0.068,0.013-0.1-0.818-.28-1.634-0.563-2.454-0.833A0.563,0.563,0,0,0,967.537,428.07ZM950.944,422.6a0.186,0.186,0,0,1,.14.021,2.062,2.062,0,0,0,.923.532l0.508,0.132c0.008-.09.022-0.232,0.034-0.368l-2.051-.682A0.345,0.345,0,0,0,950.944,422.6Zm-12.556-38.437a18.288,18.288,0,0,0-3.075-1.218c-0.016.038-.032,0.075-0.047,0.112l3.056,1.259Zm17.074,39.763h0l-1.2-.359-0.067.088a0.469,0.469,0,0,0,.129.211,1.234,1.234,0,0,1,.7.244,0.452,0.452,0,0,0,.18-0.059l0.265-.086h0c-0.044.069-.087,0.138-0.153,0.244l1.034,0.3V424.3l0.179,0.3c0.058-.154.1-0.254,0.117-0.314-0.3-.116-0.567-0.226-0.838-0.316A1.593,1.593,0,0,0,955.462,423.928Zm15.161-35.694h0l0.014,0,0,0h0l-0.008,0h0Zm0.507,0.232,0.49,0.411c-0.027-.178-0.04-0.264-0.053-0.354l0.239,0.089a0.79,0.79,0,0,0,.745.489c0.249,0.172.468,0.309,0.671,0.466a0.658,0.658,0,0,0,.706-0.052c0.294,0.367.294,0.367,0.5,0.274-0.257-.18-0.488-0.342-0.739-0.516,0-.008.047-0.08,0.114-0.192a0.912,0.912,0,0,1-1.05-.279l0.088,0.3c-0.281-.221-0.483-0.4-0.7-0.545a0.881,0.881,0,0,0-.326-0.058,5.654,5.654,0,0,0-.728-0.312,1.162,1.162,0,0,0-.445.047l0.461,0.29C971.109,388.5,971.12,388.485,971.13,388.466Zm-26.5,32.883c-0.012.041-.024,0.082-0.037,0.123l1.641,0.5c0.014-.049.028-0.1,0.041-0.147A9.371,9.371,0,0,0,944.628,421.349Zm26-33.12c0.156-.111.068-0.159-0.059-0.2-0.466-.138-0.931-0.278-1.4-0.412a1.029,1.029,0,0,0-.209-0.017c-0.008.029-.015,0.058-0.023,0.087,0.138,0.057.272,0.126,0.414,0.169C969.779,387.989,970.206,388.107,970.631,388.229Zm-37.195-6.145-0.018,0,0.009,0.011Zm-0.166-.163c-0.448-.167-0.9-0.32-1.352-0.478a4.826,4.826,0,0,0,.68.5,0.588,0.588,0,0,0,.256.114c0.209-.224.38,0.011,0.564,0.028A0.474,0.474,0,0,0,933.27,381.921Zm0.167,0.162-0.01.01,0.037,0.016Zm1.457,0.621-1.43-.6a2.67,2.67,0,0,0,1.368.727ZM976.41,390.8c0-.118.01-0.237,0.016-0.369l-0.488-.213c0.017,0.129.032,0.24,0.047,0.352-0.371-.382-0.82-0.519-1.076-0.219l1.1,0.3Zm0.01,0a0.4,0.4,0,0,0,0,.134c0.5,0.189,1.006.371,1.52,0.558l0.288-.209a2.466,2.466,0,0,0-.077.336c0.22,0.09.448,0.164,0.667,0.239v-0.619c-0.173-.072-0.371-0.156-0.571-0.238-0.168-.068-0.351-0.2-0.444.1a0.4,0.4,0,0,1-.2-0.085,0.808,0.808,0,0,0-.735-0.388,1.008,1.008,0,0,0-.45.177l-0.01,0V390.8ZM958.4,424.847l0.925,0.43c0.014-.112.022-0.18,0.027-0.213l-0.915-.313C958.419,424.783,958.407,424.815,958.4,424.847Zm6.033-39.481-1.163-.42c-0.013.037-.026,0.075-0.04,0.112l1.165,0.416C964.4,385.438,964.416,385.4,964.428,385.366Zm-33.18-7.977c0.273,0.122.545,0.245,0.819,0.362a0.234,0.234,0,0,0,.058-0.07q-0.4-.211-0.811-0.426Zm0.877,0.292h0l0.014,0a0.109,0.109,0,0,1-.008-0.015Z" transform="translate(-931 -376)"/>
                                    <path class="cls-2" d="M975.454,388.562H944.545a1.644,1.644,0,0,0,0,3.282h1.546V415.8a7.985,7.985,0,0,0,7.727,8.2h12.364a7.985,7.985,0,0,0,7.727-8.2V391.844h1.545A1.644,1.644,0,0,0,975.454,388.562ZM970.818,415.8a4.791,4.791,0,0,1-4.636,4.922H953.818a4.791,4.791,0,0,1-4.636-4.922V391.844h21.636V415.8Zm-7.727-30.516h-6.182a1.643,1.643,0,0,1,0-3.281h6.182A1.643,1.643,0,0,1,963.091,385.281ZM960,414.156a1.6,1.6,0,0,1-1.546-1.64V400.047a1.548,1.548,0,1,1,3.091,0v12.469A1.594,1.594,0,0,1,960,414.156Zm6.182,0a1.6,1.6,0,0,1-1.546-1.64V400.047a1.548,1.548,0,1,1,3.091,0v12.469A1.6,1.6,0,0,1,966.182,414.156Zm-12.364,0a1.6,1.6,0,0,1-1.545-1.64V400.047a1.548,1.548,0,1,1,3.091,0v12.469A1.6,1.6,0,0,1,953.818,414.156Z" transform="translate(-931 -376)"/>
                                  </svg>