<svg width="25" height="25" viewBox="0 0 25 25" fill="none" xmlns="http://www.w3.org/2000/svg">
<path d="M12.3018 2.13354C14.7844 2.13354 16.8091 4.12354 16.8091 6.57354V11.3635H10.7044C10.2669 11.3635 9.921 11.7035 9.921 12.1335C9.921 12.5535 10.2669 12.9035 10.7044 12.9035H16.8091V17.6835C16.8091 20.1335 14.7844 22.1335 12.2815 22.1335H7.32652C4.83379 22.1335 2.80908 20.1435 2.80908 17.6935V6.58354C2.80908 4.12354 4.84397 2.13354 7.3367 2.13354H12.3018ZM19.3493 8.68374C19.6493 8.37374 20.1393 8.37374 20.4393 8.67375L23.3593 11.5837C23.5093 11.7337 23.5893 11.9237 23.5893 12.1337C23.5893 12.3337 23.5093 12.5337 23.3593 12.6737L20.4393 15.5837C20.2893 15.7337 20.0893 15.8137 19.8993 15.8137C19.6993 15.8137 19.4993 15.7337 19.3493 15.5837C19.0493 15.2837 19.0493 14.7937 19.3493 14.4937L20.9493 12.9037H16.8093V11.3637H20.9493L19.3493 9.77375C19.0493 9.47374 19.0493 8.98375 19.3493 8.68374Z" fill="white"/>
</svg>
