<svg width="19" height="21" viewBox="0 0 19 21" fill="none" xmlns="http://www.w3.org/2000/svg">
                                        <path d="M9.27448 0.818848C11.9544 0.818848 14.1577 2.92476 14.2695 5.59317H14.2434C14.2465 5.67074 14.2316 5.74797 14.1999 5.81885H14.356C15.573 5.81885 16.8474 6.66235 17.3584 8.69865L17.4139 8.93892L18.1828 15.1336C18.7361 19.0846 16.5745 20.7461 13.6257 20.8165L13.428 20.8188H5.13806C2.14131 20.8188 -0.167924 19.7268 0.339812 15.4024L0.374436 15.1336L1.15217 8.93892C1.53567 6.74603 2.82314 5.88109 4.06365 5.82211L4.20124 5.81885H4.27942C4.26624 5.74419 4.26624 5.66782 4.27942 5.59317C4.39125 2.92476 6.59453 0.818848 9.27448 0.818848ZM6.36653 9.14814C5.87842 9.14814 5.48274 9.5554 5.48274 10.0578C5.48274 10.5602 5.87842 10.9674 6.36653 10.9674C6.85463 10.9674 7.25032 10.5602 7.25032 10.0578L7.24343 9.94367C7.1889 9.49515 6.81709 9.14814 6.36653 9.14814ZM12.1553 9.14814C11.6672 9.14814 11.2716 9.5554 11.2716 10.0578C11.2716 10.5602 11.6672 10.9674 12.1553 10.9674C12.6435 10.9674 13.0391 10.5602 13.0391 10.0578C13.0391 9.5554 12.6435 9.14814 12.1553 9.14814ZM9.23528 2.12123C7.31117 2.12123 5.75137 3.67567 5.75137 5.59317C5.76455 5.66782 5.76455 5.74419 5.75137 5.81885H12.7627C12.7349 5.74679 12.7202 5.67037 12.7192 5.59317C12.7192 3.67567 11.1594 2.12123 9.23528 2.12123Z" fill="url(#paint0_linear_91_741)"/>
                                        <defs>
                                            <linearGradient id="paint0_linear_91_741" x1="0.688656" y1="2.89317" x2="16.966" y2="3.32405" gradientUnits="userSpaceOnUse">
                                                <stop stop-color="#FF479F"/>
                                                <stop offset="1" stop-color="#FF783F"/>
                                            </linearGradient>
                                        </defs>
                                    </svg>
