 <svg width="20" height="21" viewBox="0 0 20 21" fill="none" xmlns="http://www.w3.org/2000/svg">
                                        <path d="M10.9863 0.0997925C11.7425 0.0997925 12.4272 0.519792 12.8054 1.13979C12.9893 1.43979 13.1119 1.80979 13.0813 2.19979C13.0608 2.49979 13.1528 2.79979 13.3163 3.07979C13.8375 3.92979 14.9923 4.24979 15.8917 3.76979C16.9034 3.18979 18.1808 3.53979 18.7634 4.52979L19.4481 5.70979C20.0408 6.69979 19.7138 7.96979 18.6918 8.53979C17.8232 9.04979 17.5166 10.1798 18.0378 11.0398C18.2013 11.3098 18.3852 11.5398 18.6714 11.6798C19.0291 11.8698 19.305 12.1698 19.4992 12.4698C19.8773 13.0898 19.8466 13.8498 19.4787 14.5198L18.7634 15.7198C18.3852 16.3598 17.6801 16.7598 16.9545 16.7598C16.5968 16.7598 16.1983 16.6598 15.8712 16.4598C15.6055 16.2898 15.2989 16.2298 14.9719 16.2298C13.9602 16.2298 13.1119 17.0598 13.0813 18.0498C13.0813 19.1998 12.1411 20.0998 10.9658 20.0998H9.57597C8.3905 20.0998 7.4503 19.1998 7.4503 18.0498C7.42986 17.0598 6.58163 16.2298 5.56989 16.2298C5.23265 16.2298 4.92606 16.2898 4.67057 16.4598C4.34355 16.6598 3.93476 16.7598 3.5873 16.7598C2.85149 16.7598 2.14634 16.3598 1.76821 15.7198L1.06306 14.5198C0.684939 13.8698 0.664499 13.0898 1.04262 12.4698C1.20614 12.1698 1.51272 11.8698 1.86019 11.6798C2.14634 11.5398 2.33029 11.3098 2.50402 11.0398C3.015 10.1798 2.70841 9.04979 1.83975 8.53979C0.828013 7.96979 0.500986 6.69979 1.0835 5.70979L1.76821 4.52979C2.36095 3.53979 3.62818 3.18979 4.65013 3.76979C5.53924 4.24979 6.69405 3.92979 7.21525 3.07979C7.37876 2.79979 7.47074 2.49979 7.4503 2.19979C7.42986 1.80979 7.54227 1.43979 7.73644 1.13979C8.11457 0.519792 8.79928 0.119792 9.54531 0.0997925H10.9863ZM10.2811 7.27979C8.67665 7.27979 7.37876 8.53979 7.37876 10.1098C7.37876 11.6798 8.67665 12.9298 10.2811 12.9298C11.8856 12.9298 13.1528 11.6798 13.1528 10.1098C13.1528 8.53979 11.8856 7.27979 10.2811 7.27979Z" fill="url(#paint0_linear_91_744)"/>
                                        <defs>
                                        <linearGradient id="paint0_linear_91_744" x1="0.688656" y1="2.89317" x2="16.966" y2="3.32405" gradientUnits="userSpaceOnUse">
                                            <stop stop-color="#FF479F"/>
                                            <stop offset="1" stop-color="#FF783F"/>
                                        </linearGradient>
                                        </defs>
                                    </svg>
