  <svg width="19" height="21" viewBox="0 0 19 21" fill="none" xmlns="http://www.w3.org/2000/svg">
                                        <path d="M13.4605 0.579163C16.5495 0.579163 18.2695 2.35916 18.2695 5.40916V15.7392C18.2695 18.8392 16.5495 20.5792 13.4605 20.5792H5.07953C2.03953 20.5792 0.269531 18.8392 0.269531 15.7392V5.40916C0.269531 2.35916 2.03953 0.579163 5.07953 0.579163H13.4605ZM5.34953 14.3192C5.04953 14.2892 4.75953 14.4292 4.59953 14.6892C4.43953 14.9392 4.43953 15.2692 4.59953 15.5292C4.75953 15.7792 5.04953 15.9292 5.34953 15.8892H13.1895C13.5885 15.8492 13.8895 15.5082 13.8895 15.1092C13.8895 14.6992 13.5885 14.3592 13.1895 14.3192H5.34953ZM13.1895 9.75816H5.34953C4.91853 9.75816 4.56953 10.1092 4.56953 10.5392C4.56953 10.9692 4.91853 11.3192 5.34953 11.3192H13.1895C13.6195 11.3192 13.9695 10.9692 13.9695 10.5392C13.9695 10.1092 13.6195 9.75816 13.1895 9.75816ZM8.33853 5.22916H5.34953V5.23916C4.91853 5.23916 4.56953 5.58916 4.56953 6.01916C4.56953 6.44916 4.91853 6.79916 5.34953 6.79916H8.33853C8.76953 6.79916 9.11953 6.44916 9.11953 6.00816C9.11953 5.57916 8.76953 5.22916 8.33853 5.22916Z" fill="url(#paint0_linear_91_742)"/>
                                        <defs>
                                        <linearGradient id="paint0_linear_91_742" x1="0.688656" y1="2.89317" x2="16.966" y2="3.32405" gradientUnits="userSpaceOnUse">
                                            <stop stop-color="#FF479F"/>
                                            <stop offset="1" stop-color="#FF783F"/>
                                        </linearGradient>
                                    </defs>
                                    </svg>
