 <svg width="19" height="21" viewBox="0 0 19 21" fill="none" xmlns="http://www.w3.org/2000/svg">
                                        <path d="M17.1695 18.9534H3.11113C2.65613 18.9534 2.2028 18.5901 2.2028 18.0451C2.2028 17.5368 2.61113 17.1285 3.11113 17.1285H17.1695C17.6395 17.1285 18.0028 16.7351 18.0028 16.2951L17.9945 2.68678C17.9945 2.13867 17.7767 1.613 17.3892 1.22543C17.0016 0.837855 16.4759 0.620117 15.9278 0.620117H3.11113C1.73197 0.620117 0.536133 1.74928 0.536133 3.19512V18.0451C0.536133 19.5118 1.73197 20.6201 3.11113 20.6201H17.1695C17.6278 20.6201 18.0028 20.2451 18.0028 19.7868C18.0028 19.3284 17.6278 18.9534 17.1695 18.9534ZM2.2028 3.19512C2.2028 2.70345 2.61947 2.28678 3.11113 2.28678H3.8778V15.4618C3.35363 15.4951 2.9128 15.3726 2.2028 15.6285V3.19512ZM8.21113 7.34512C8.21113 6.90345 8.4528 6.49512 8.83613 6.28678C9.21947 6.07012 9.69447 6.08678 10.0695 6.32845L12.4528 7.86178C12.8028 8.07845 13.0111 8.46178 13.0111 8.87845C13.0111 9.28678 12.8028 9.67012 12.4528 9.88678L10.0695 11.4201C9.88693 11.5381 9.67579 11.6043 9.45857 11.6116C9.24135 11.619 9.02621 11.5672 8.83613 11.4618C8.4528 11.2535 8.21113 10.8451 8.21113 10.4035V7.34512Z" fill="url(#paint0_linear_91_746)"/>
                                      <defs>
                                        <linearGradient id="paint0_linear_91_746" x1="0.688656" y1="2.89317" x2="16.966" y2="3.32405" gradientUnits="userSpaceOnUse">
                                            <stop stop-color="#FF479F"/>
                                            <stop offset="1" stop-color="#FF783F"/>
                                        </linearGradient>
                                    </defs>
                                        </svg>
