  <svg width="24" height="18" viewBox="0 0 24 18" fill="none" xmlns="http://www.w3.org/2000/svg">
    <path d="M23.957 16.777C23.957 17.0588 23.8451 17.329 23.6458 17.5283C23.4466 17.7275 23.1763 17.8395 22.8945 17.8395H10.1445C9.86274 17.8395 9.59249 17.7275 9.39323 17.5283C9.19397 17.329 9.08203 17.0588 9.08203 16.777C9.08203 15.0862 9.75368 13.4647 10.9492 12.2692C12.1448 11.0736 13.7663 10.402 15.457 10.402H17.582C19.2728 10.402 20.8943 11.0736 22.0898 12.2692C23.2854 13.4647 23.957 15.0862 23.957 16.777ZM16.5195 0.839478C15.679 0.839478 14.8573 1.08874 14.1584 1.55573C13.4594 2.02273 12.9147 2.68649 12.593 3.46307C12.2714 4.23966 12.1872 5.09419 12.3512 5.91861C12.5152 6.74303 12.92 7.50031 13.5143 8.09468C14.1087 8.68905 14.866 9.09383 15.6904 9.25782C16.5148 9.4218 17.3693 9.33764 18.1459 9.01597C18.9225 8.69429 19.5863 8.14956 20.0533 7.45065C20.5203 6.75174 20.7695 5.93005 20.7695 5.08948C20.7695 3.96231 20.3218 2.8813 19.5247 2.08427C18.7277 1.28724 17.6467 0.839478 16.5195 0.839478ZM6.95703 0.839478C6.11646 0.839478 5.29477 1.08874 4.59586 1.55573C3.89695 2.02273 3.35222 2.68649 3.03054 3.46307C2.70887 4.23966 2.62471 5.09419 2.78869 5.91861C2.95268 6.74303 3.35745 7.50031 3.95183 8.09468C4.5462 8.68905 5.30348 9.09383 6.1279 9.25782C6.95232 9.4218 7.80685 9.33764 8.58344 9.01597C9.36002 8.69429 10.0238 8.14956 10.4908 7.45065C10.9578 6.75174 11.207 5.93005 11.207 5.08948C11.207 3.96231 10.7593 2.8813 9.96224 2.08427C9.16521 1.28724 8.0842 0.839478 6.95703 0.839478ZM6.95703 16.777C6.95545 15.6609 7.17533 14.5557 7.60393 13.5252C8.03253 12.4948 8.66133 11.5596 9.45391 10.7739C8.80529 10.529 8.11784 10.403 7.42453 10.402H6.48953C4.92363 10.4048 3.42266 11.0281 2.3154 12.1353C1.20814 13.2426 0.58484 14.7436 0.582031 16.3095V16.777C0.582031 17.0588 0.693973 17.329 0.89323 17.5283C1.09249 17.7275 1.36274 17.8395 1.64453 17.8395H7.14828C7.02458 17.4988 6.9599 17.1394 6.95703 16.777Z" fill="url(#paint0_linear_91_743)"/>
    <defs>
    <linearGradient id="paint0_linear_91_743" x1="0.688656" y1="2.89317" x2="16.966" y2="3.32405" gradientUnits="userSpaceOnUse">
        <stop stop-color="#FF479F"/>
        <stop offset="1" stop-color="#FF783F"/>
    </linearGradient>
    </defs>
</svg>
