<svg xmlns="http://www.w3.org/2000/svg" width="12" height="11" fill="none" xmlns:v="https://vecta.io/nano"><path d="M11.123 5.124c-.048-.008-.096-.011-.144-.011H2.752l.179-.083a1.67 1.67 0 0 0 .471-.334L5.71 2.39c.304-.29.355-.757.121-1.105-.272-.372-.794-.452-1.166-.18-.03.022-.059.046-.085.072L.408 5.347c-.326.326-.326.854-.001 1.18l4.172 4.172c.326.325.854.325 1.18-.002.026-.026.05-.053.072-.082.234-.349.183-.815-.121-1.105L3.407 7.199a1.67 1.67 0 0 0-.417-.305l-.25-.113h8.193c.426.016.8-.282.88-.701.074-.455-.235-.883-.69-.957z" fill="#252a56"/></svg>