<svg width="11" height="11" viewBox="0 0 11 11" fill="none" xmlns="http://www.w3.org/2000/svg">
<path d="M10.0952 9.00821L6.68031 5.5803L10.103 2.19665C10.2436 2.0561 10.2436 1.82705 10.103 1.6865L9.12955 0.707842C9.06188 0.640169 8.97078 0.603729 8.87448 0.603729C8.77817 0.603729 8.68707 0.642771 8.6194 0.707842L5.21232 4.08108L1.80004 0.710445C1.73236 0.642772 1.64126 0.606332 1.54496 0.606332C1.44866 0.606332 1.35756 0.645374 1.28989 0.710445L0.319037 1.6891C0.178485 1.82965 0.178485 2.0587 0.319037 2.19925L3.74173 5.58291L0.329448 9.00821C0.261775 9.07588 0.222733 9.16698 0.222733 9.26328C0.222733 9.35959 0.259172 9.45068 0.329448 9.51836L1.3029 10.497C1.37318 10.5673 1.46427 10.6037 1.55797 10.6037C1.64907 10.6037 1.74277 10.5699 1.81305 10.497L5.21232 7.08213L8.61419 10.4944C8.68447 10.5647 8.77557 10.6011 8.86927 10.6011C8.96037 10.6011 9.05407 10.5673 9.12434 10.4944L10.0978 9.51575C10.1655 9.44808 10.2045 9.35698 10.2045 9.26068C10.2019 9.16698 10.1629 9.07588 10.0952 9.00821Z" fill="#939393"/>
</svg>
