 <svg width="16" height="21" viewBox="0 0 16 21" fill="none" xmlns="http://www.w3.org/2000/svg">
                                    <path d="M12.9292 8.12482H4.1792V6.87482C4.1792 4.80694 5.86132 3.12482 7.9292 3.12482C9.99707 3.12482 11.6792 4.80694 11.6792 6.87482H14.1792C14.1792 3.42877 11.3752 0.624817 7.9292 0.624817C4.48315 0.624817 1.6792 3.42877 1.6792 6.87482V8.47249C0.935562 8.90607 0.429199 9.70342 0.429199 10.6248V18.1248C0.429199 19.5036 1.55042 20.6248 2.9292 20.6248H12.9292C14.308 20.6248 15.4292 19.5036 15.4292 18.1248V10.6248C15.4292 9.24603 14.308 8.12482 12.9292 8.12482ZM9.1792 15.1382V16.8748H6.6792V15.1382C6.29819 14.795 6.0542 14.303 6.0542 13.7498C6.0542 12.7143 6.89366 11.8748 7.9292 11.8748C8.96474 11.8748 9.8042 12.7143 9.8042 13.7498C9.8042 14.3029 9.56021 14.795 9.1792 15.1382Z" fill="#9B9EB8"/>
                                </svg>