<svg width="15" height="17" viewBox="0 0 15 17" fill="none" xmlns="http://www.w3.org/2000/svg">
<path d="M7.92908 0.763245C5.60286 0.763245 3.71033 2.65578 3.71033 4.98199C3.71033 7.30821 5.60286 9.20074 7.92908 9.20074C10.2553 9.20074 12.1478 7.30821 12.1478 4.98199C12.1478 2.65578 10.2553 0.763245 7.92908 0.763245ZM13.178 11.9568C12.023 10.7841 10.4919 10.1382 8.86658 10.1382H6.99158C5.36633 10.1382 3.83514 10.7841 2.68014 11.9568C1.5308 13.1238 0.897827 14.6643 0.897827 16.2945C0.897827 16.5534 1.1077 16.7632 1.36658 16.7632H14.4916C14.7505 16.7632 14.9603 16.5534 14.9603 16.2945C14.9603 14.6643 14.3274 13.1238 13.178 11.9568Z" fill="#9B9EB8"/>
</svg>
